<mxfile host="app.diagrams.net" modified="2023-10-13T14:28:26.367Z" agent="Mozilla/5.0 (Windows NT 10.0; Win64; x64) AppleWebKit/537.36 (KHTML, like Gecko) Chrome/117.0.0.0 Safari/537.36" etag="iru-0Sva4envVD9INJyr" version="22.0.4" type="github">
  <diagram name="Página-1" id="wqktx3amXNecIDYstiPR">
    <mxGraphModel dx="2933" dy="1613" grid="1" gridSize="10" guides="1" tooltips="1" connect="1" arrows="1" fold="1" page="1" pageScale="1" pageWidth="827" pageHeight="1169" math="0" shadow="0">
      <root>
        <mxCell id="0" />
        <mxCell id="1" parent="0" />
        <mxCell id="dOXDGdKDW4Vw85Aybklp-6" value="Hotel" style="rounded=1;whiteSpace=wrap;html=1;fillColor=#e1d5e7;strokeColor=#9673a6;" vertex="1" parent="1">
          <mxGeometry x="210" y="120" width="120" height="60" as="geometry" />
        </mxCell>
        <mxCell id="dOXDGdKDW4Vw85Aybklp-7" value="Envía" style="rhombus;whiteSpace=wrap;html=1;fillColor=#ffff88;strokeColor=#36393d;" vertex="1" parent="1">
          <mxGeometry x="352.25" y="40" width="60" height="60" as="geometry" />
        </mxCell>
        <mxCell id="dOXDGdKDW4Vw85Aybklp-8" value="Juega" style="rhombus;whiteSpace=wrap;html=1;fillColor=#ffff88;strokeColor=#36393d;" vertex="1" parent="1">
          <mxGeometry x="352.25" y="120" width="60" height="60" as="geometry" />
        </mxCell>
        <mxCell id="dOXDGdKDW4Vw85Aybklp-9" value="Arbitra" style="rhombus;whiteSpace=wrap;html=1;fillColor=#ffff88;strokeColor=#36393d;" vertex="1" parent="1">
          <mxGeometry x="352.25" y="200" width="60" height="60" as="geometry" />
        </mxCell>
        <mxCell id="dOXDGdKDW4Vw85Aybklp-10" value="Se aloja" style="rhombus;whiteSpace=wrap;html=1;fillColor=#ffff88;strokeColor=#36393d;" vertex="1" parent="1">
          <mxGeometry x="422.25" y="120" width="60" height="60" as="geometry" />
        </mxCell>
        <mxCell id="dOXDGdKDW4Vw85Aybklp-11" value="Se&lt;br&gt;juega&lt;br&gt;en" style="rhombus;whiteSpace=wrap;html=1;fillColor=#ffff88;strokeColor=#36393d;" vertex="1" parent="1">
          <mxGeometry x="422.25" y="40" width="60" height="60" as="geometry" />
        </mxCell>
        <mxCell id="dOXDGdKDW4Vw85Aybklp-12" value="Partida" style="rounded=1;whiteSpace=wrap;html=1;fillColor=#fff2cc;strokeColor=#d6b656;" vertex="1" parent="1">
          <mxGeometry x="210.5" y="201" width="120" height="60" as="geometry" />
        </mxCell>
        <mxCell id="dOXDGdKDW4Vw85Aybklp-13" value="Jornadas" style="rounded=1;whiteSpace=wrap;html=1;fillColor=#ffe6cc;strokeColor=#d79b00;" vertex="1" parent="1">
          <mxGeometry x="499" y="41" width="120" height="60" as="geometry" />
        </mxCell>
        <mxCell id="dOXDGdKDW4Vw85Aybklp-14" value="Se&lt;br&gt;desarrolla&lt;br&gt;en" style="rhombus;whiteSpace=wrap;html=1;fillColor=#ffff88;strokeColor=#36393d;" vertex="1" parent="1">
          <mxGeometry x="422.25" y="200" width="60" height="60" as="geometry" />
        </mxCell>
        <mxCell id="dOXDGdKDW4Vw85Aybklp-15" value="País" style="rounded=1;whiteSpace=wrap;html=1;fillColor=#B3FF66;strokeColor=#009900;" vertex="1" parent="1">
          <mxGeometry x="78.5" y="500" width="120" height="60" as="geometry" />
        </mxCell>
        <mxCell id="dOXDGdKDW4Vw85Aybklp-17" value="Envía" style="rhombus;whiteSpace=wrap;html=1;fillColor=#ffff88;strokeColor=#36393d;" vertex="1" parent="1">
          <mxGeometry x="248.5" y="510" width="60" height="60" as="geometry" />
        </mxCell>
        <mxCell id="dOXDGdKDW4Vw85Aybklp-18" value="" style="triangle;whiteSpace=wrap;html=1;direction=south;fillColor=#FFFF88;" vertex="1" parent="1">
          <mxGeometry x="378.5" y="610" width="80" height="50" as="geometry" />
        </mxCell>
        <mxCell id="dOXDGdKDW4Vw85Aybklp-19" value="Participante" style="rounded=1;whiteSpace=wrap;html=1;fillColor=#00FFFF;strokeColor=#3399FF;" vertex="1" parent="1">
          <mxGeometry x="358.5" y="510" width="120" height="60" as="geometry" />
        </mxCell>
        <mxCell id="dOXDGdKDW4Vw85Aybklp-20" value="Participante" style="rounded=1;whiteSpace=wrap;html=1;fillColor=#00FFFF;strokeColor=#3399FF;" vertex="1" parent="1">
          <mxGeometry x="499" y="121" width="120" height="60" as="geometry" />
        </mxCell>
        <mxCell id="dOXDGdKDW4Vw85Aybklp-21" value="Árbitro" style="rounded=1;whiteSpace=wrap;html=1;fillColor=#FF6666;strokeColor=#990000;" vertex="1" parent="1">
          <mxGeometry x="268.5" y="700" width="120" height="60" as="geometry" />
        </mxCell>
        <mxCell id="dOXDGdKDW4Vw85Aybklp-22" value="Jugador" style="rounded=1;whiteSpace=wrap;html=1;fillColor=#3399FF;strokeColor=#000099;" vertex="1" parent="1">
          <mxGeometry x="448.5" y="700" width="120" height="60" as="geometry" />
        </mxCell>
        <mxCell id="dOXDGdKDW4Vw85Aybklp-26" value="Árbitro" style="rounded=1;whiteSpace=wrap;html=1;fillColor=#FF6666;strokeColor=#990000;" vertex="1" parent="1">
          <mxGeometry x="629" y="161" width="120" height="60" as="geometry" />
        </mxCell>
        <mxCell id="dOXDGdKDW4Vw85Aybklp-27" value="Jugador" style="rounded=1;whiteSpace=wrap;html=1;fillColor=#3399FF;strokeColor=#000099;" vertex="1" parent="1">
          <mxGeometry x="629" y="81" width="120" height="60" as="geometry" />
        </mxCell>
        <mxCell id="dOXDGdKDW4Vw85Aybklp-28" value="" style="endArrow=none;html=1;rounded=0;exitX=0.5;exitY=0;exitDx=0;exitDy=0;" edge="1" parent="1" source="dOXDGdKDW4Vw85Aybklp-21">
          <mxGeometry width="50" height="50" relative="1" as="geometry">
            <mxPoint x="368.5" y="710" as="sourcePoint" />
            <mxPoint x="418.5" y="660" as="targetPoint" />
          </mxGeometry>
        </mxCell>
        <mxCell id="dOXDGdKDW4Vw85Aybklp-29" value="" style="endArrow=none;html=1;rounded=0;entryX=1;entryY=0.5;entryDx=0;entryDy=0;exitX=0.5;exitY=0;exitDx=0;exitDy=0;" edge="1" parent="1" source="dOXDGdKDW4Vw85Aybklp-22" target="dOXDGdKDW4Vw85Aybklp-18">
          <mxGeometry width="50" height="50" relative="1" as="geometry">
            <mxPoint x="498.5" y="700" as="sourcePoint" />
            <mxPoint x="548.5" y="650" as="targetPoint" />
          </mxGeometry>
        </mxCell>
        <mxCell id="dOXDGdKDW4Vw85Aybklp-31" value="" style="endArrow=none;html=1;rounded=0;" edge="1" parent="1">
          <mxGeometry width="50" height="50" relative="1" as="geometry">
            <mxPoint x="198.5" y="540" as="sourcePoint" />
            <mxPoint x="248.5" y="540" as="targetPoint" />
          </mxGeometry>
        </mxCell>
        <mxCell id="dOXDGdKDW4Vw85Aybklp-32" value="" style="endArrow=none;html=1;rounded=0;" edge="1" parent="1">
          <mxGeometry width="50" height="50" relative="1" as="geometry">
            <mxPoint x="308.5" y="540" as="sourcePoint" />
            <mxPoint x="358.5" y="540" as="targetPoint" />
          </mxGeometry>
        </mxCell>
        <mxCell id="dOXDGdKDW4Vw85Aybklp-33" value="País" style="rounded=1;whiteSpace=wrap;html=1;fillColor=#B3FF66;strokeColor=#009900;" vertex="1" parent="1">
          <mxGeometry x="210.5" y="41" width="120" height="60" as="geometry" />
        </mxCell>
        <mxCell id="dOXDGdKDW4Vw85Aybklp-37" value="" style="shape=requiredInterface;html=1;verticalLabelPosition=bottom;sketch=0;direction=south;" vertex="1" parent="1">
          <mxGeometry x="358.5" y="660" width="120" height="30" as="geometry" />
        </mxCell>
        <mxCell id="dOXDGdKDW4Vw85Aybklp-38" value="Tipo" style="ellipse;whiteSpace=wrap;html=1;" vertex="1" parent="1">
          <mxGeometry x="403.5" y="580" width="30" height="20" as="geometry" />
        </mxCell>
        <mxCell id="dOXDGdKDW4Vw85Aybklp-39" value="" style="endArrow=none;html=1;rounded=0;exitX=0.5;exitY=0;exitDx=0;exitDy=0;" edge="1" parent="1" source="dOXDGdKDW4Vw85Aybklp-38">
          <mxGeometry width="50" height="50" relative="1" as="geometry">
            <mxPoint x="368.5" y="620" as="sourcePoint" />
            <mxPoint x="418.5" y="570" as="targetPoint" />
          </mxGeometry>
        </mxCell>
        <mxCell id="dOXDGdKDW4Vw85Aybklp-40" value="" style="endArrow=none;html=1;rounded=0;exitX=0.5;exitY=0;exitDx=0;exitDy=0;" edge="1" parent="1">
          <mxGeometry width="50" height="50" relative="1" as="geometry">
            <mxPoint x="418.4" y="600" as="sourcePoint" />
            <mxPoint x="418.61" y="600" as="targetPoint" />
            <Array as="points">
              <mxPoint x="418.4" y="610" />
            </Array>
          </mxGeometry>
        </mxCell>
        <mxCell id="dOXDGdKDW4Vw85Aybklp-41" value="Partida" style="rounded=1;whiteSpace=wrap;html=1;fillColor=#fff2cc;strokeColor=#d6b656;" vertex="1" parent="1">
          <mxGeometry x="528.5" y="870" width="120" height="60" as="geometry" />
        </mxCell>
        <mxCell id="dOXDGdKDW4Vw85Aybklp-42" value="Juega" style="rhombus;whiteSpace=wrap;html=1;fillColor=#ffff88;strokeColor=#36393d;" vertex="1" parent="1">
          <mxGeometry x="518.5" y="790" width="60" height="60" as="geometry" />
        </mxCell>
        <mxCell id="dOXDGdKDW4Vw85Aybklp-43" value="Arbitra" style="rhombus;whiteSpace=wrap;html=1;fillColor=#ffff88;strokeColor=#36393d;" vertex="1" parent="1">
          <mxGeometry x="268.5" y="870" width="60" height="60" as="geometry" />
        </mxCell>
        <mxCell id="dOXDGdKDW4Vw85Aybklp-44" value="" style="endArrow=none;html=1;rounded=0;" edge="1" parent="1" source="dOXDGdKDW4Vw85Aybklp-43">
          <mxGeometry width="50" height="50" relative="1" as="geometry">
            <mxPoint x="248.5" y="810" as="sourcePoint" />
            <mxPoint x="298.5" y="760" as="targetPoint" />
          </mxGeometry>
        </mxCell>
        <mxCell id="dOXDGdKDW4Vw85Aybklp-46" value="" style="endArrow=none;html=1;rounded=0;" edge="1" parent="1" target="dOXDGdKDW4Vw85Aybklp-41">
          <mxGeometry width="50" height="50" relative="1" as="geometry">
            <mxPoint x="328.5" y="899.4100000000001" as="sourcePoint" />
            <mxPoint x="448.5" y="899.4099999999999" as="targetPoint" />
          </mxGeometry>
        </mxCell>
        <mxCell id="dOXDGdKDW4Vw85Aybklp-48" value="Hotel" style="rounded=1;whiteSpace=wrap;html=1;fillColor=#e1d5e7;strokeColor=#9673a6;" vertex="1" parent="1">
          <mxGeometry x="608.5" y="640" width="120" height="60" as="geometry" />
        </mxCell>
        <mxCell id="dOXDGdKDW4Vw85Aybklp-49" value="Se aloja" style="rhombus;whiteSpace=wrap;html=1;fillColor=#FFFF88;strokeColor=#36393d;" vertex="1" parent="1">
          <mxGeometry x="508.5" y="510" width="60" height="60" as="geometry" />
        </mxCell>
        <mxCell id="dOXDGdKDW4Vw85Aybklp-50" value="" style="endArrow=none;html=1;rounded=0;entryX=0;entryY=0.5;entryDx=0;entryDy=0;" edge="1" parent="1" target="dOXDGdKDW4Vw85Aybklp-49">
          <mxGeometry width="50" height="50" relative="1" as="geometry">
            <mxPoint x="478.5" y="540" as="sourcePoint" />
            <mxPoint x="528.5" y="490" as="targetPoint" />
          </mxGeometry>
        </mxCell>
        <mxCell id="dOXDGdKDW4Vw85Aybklp-52" value="Torneo" style="rounded=1;whiteSpace=wrap;html=1;fillColor=#f8cecc;strokeColor=#b85450;" vertex="1" parent="1">
          <mxGeometry x="499" y="201" width="120" height="60" as="geometry" />
        </mxCell>
        <mxCell id="dOXDGdKDW4Vw85Aybklp-54" value="Se desarrolla&lt;br&gt;en" style="rhombus;whiteSpace=wrap;html=1;fillColor=#ffff88;strokeColor=#36393d;" vertex="1" parent="1">
          <mxGeometry x="638.5" y="770" width="60" height="60" as="geometry" />
        </mxCell>
        <mxCell id="dOXDGdKDW4Vw85Aybklp-55" value="Se&lt;br&gt;juega&lt;br&gt;en" style="rhombus;whiteSpace=wrap;html=1;fillColor=#ffff88;strokeColor=#36393d;" vertex="1" parent="1">
          <mxGeometry x="599.5" y="970" width="60" height="60" as="geometry" />
        </mxCell>
        <mxCell id="dOXDGdKDW4Vw85Aybklp-56" value="Jornadas" style="rounded=1;whiteSpace=wrap;html=1;fillColor=#ffe6cc;strokeColor=#d79b00;" vertex="1" parent="1">
          <mxGeometry x="569.5" y="1060" width="120" height="60" as="geometry" />
        </mxCell>
        <mxCell id="dOXDGdKDW4Vw85Aybklp-57" value="" style="endArrow=none;html=1;rounded=0;" edge="1" parent="1" target="dOXDGdKDW4Vw85Aybklp-55">
          <mxGeometry width="50" height="50" relative="1" as="geometry">
            <mxPoint x="629.5" y="1060" as="sourcePoint" />
            <mxPoint x="679.5" y="1010" as="targetPoint" />
          </mxGeometry>
        </mxCell>
        <mxCell id="dOXDGdKDW4Vw85Aybklp-58" value="" style="endArrow=none;html=1;rounded=0;exitX=0.5;exitY=0;exitDx=0;exitDy=0;" edge="1" parent="1" source="dOXDGdKDW4Vw85Aybklp-55">
          <mxGeometry width="50" height="50" relative="1" as="geometry">
            <mxPoint x="629.1599999999999" y="960" as="sourcePoint" />
            <mxPoint x="629.1599999999999" y="930" as="targetPoint" />
          </mxGeometry>
        </mxCell>
        <mxCell id="dOXDGdKDW4Vw85Aybklp-66" value="" style="endArrow=none;html=1;rounded=0;" edge="1" parent="1">
          <mxGeometry width="50" height="50" relative="1" as="geometry">
            <mxPoint x="648.5" y="900" as="sourcePoint" />
            <mxPoint x="668.5" y="900" as="targetPoint" />
          </mxGeometry>
        </mxCell>
        <mxCell id="dOXDGdKDW4Vw85Aybklp-67" value="" style="endArrow=none;html=1;rounded=0;" edge="1" parent="1" target="dOXDGdKDW4Vw85Aybklp-54">
          <mxGeometry width="50" height="50" relative="1" as="geometry">
            <mxPoint x="668.5" y="900" as="sourcePoint" />
            <mxPoint x="728.5" y="850" as="targetPoint" />
          </mxGeometry>
        </mxCell>
        <mxCell id="dOXDGdKDW4Vw85Aybklp-68" value="" style="endArrow=none;html=1;rounded=0;exitX=0.167;exitY=0.008;exitDx=0;exitDy=0;exitPerimeter=0;entryX=0.5;entryY=1;entryDx=0;entryDy=0;" edge="1" parent="1" source="dOXDGdKDW4Vw85Aybklp-41" target="dOXDGdKDW4Vw85Aybklp-42">
          <mxGeometry width="50" height="50" relative="1" as="geometry">
            <mxPoint x="499.5" y="900" as="sourcePoint" />
            <mxPoint x="549.5" y="850" as="targetPoint" />
          </mxGeometry>
        </mxCell>
        <mxCell id="dOXDGdKDW4Vw85Aybklp-69" value="" style="endArrow=none;html=1;rounded=0;entryX=0.833;entryY=1.007;entryDx=0;entryDy=0;entryPerimeter=0;exitX=0.5;exitY=0;exitDx=0;exitDy=0;" edge="1" parent="1" source="dOXDGdKDW4Vw85Aybklp-42" target="dOXDGdKDW4Vw85Aybklp-22">
          <mxGeometry width="50" height="50" relative="1" as="geometry">
            <mxPoint x="549.5" y="790" as="sourcePoint" />
            <mxPoint x="599.5" y="740" as="targetPoint" />
          </mxGeometry>
        </mxCell>
        <mxCell id="dOXDGdKDW4Vw85Aybklp-70" value="1:n" style="text;html=1;strokeColor=none;fillColor=none;align=center;verticalAlign=middle;whiteSpace=wrap;rounded=0;" vertex="1" parent="1">
          <mxGeometry x="298.5" y="510" width="60" height="30" as="geometry" />
        </mxCell>
        <mxCell id="dOXDGdKDW4Vw85Aybklp-71" value="1:1" style="text;html=1;strokeColor=none;fillColor=none;align=center;verticalAlign=middle;whiteSpace=wrap;rounded=0;" vertex="1" parent="1">
          <mxGeometry x="198.5" y="510" width="60" height="30" as="geometry" />
        </mxCell>
        <mxCell id="dOXDGdKDW4Vw85Aybklp-72" value="1:n" style="text;html=1;strokeColor=none;fillColor=none;align=center;verticalAlign=middle;whiteSpace=wrap;rounded=0;" vertex="1" parent="1">
          <mxGeometry x="248.5" y="480" width="60" height="30" as="geometry" />
        </mxCell>
        <mxCell id="dOXDGdKDW4Vw85Aybklp-73" value="n:1" style="text;html=1;strokeColor=none;fillColor=none;align=center;verticalAlign=middle;whiteSpace=wrap;rounded=0;" vertex="1" parent="1">
          <mxGeometry x="468.5" y="510" width="60" height="30" as="geometry" />
        </mxCell>
        <mxCell id="dOXDGdKDW4Vw85Aybklp-74" value="1:1" style="text;html=1;strokeColor=none;fillColor=none;align=center;verticalAlign=middle;whiteSpace=wrap;rounded=0;" vertex="1" parent="1">
          <mxGeometry x="558.5" y="505" width="60" height="30" as="geometry" />
        </mxCell>
        <mxCell id="dOXDGdKDW4Vw85Aybklp-75" value="n:1" style="text;html=1;strokeColor=none;fillColor=none;align=center;verticalAlign=middle;whiteSpace=wrap;rounded=0;" vertex="1" parent="1">
          <mxGeometry x="508.5" y="480" width="60" height="30" as="geometry" />
        </mxCell>
        <mxCell id="dOXDGdKDW4Vw85Aybklp-76" value="1:n" style="text;html=1;strokeColor=none;fillColor=none;align=center;verticalAlign=middle;whiteSpace=wrap;rounded=0;" vertex="1" parent="1">
          <mxGeometry x="539.5" y="840" width="60" height="30" as="geometry" />
        </mxCell>
        <mxCell id="dOXDGdKDW4Vw85Aybklp-77" value="1:n" style="text;html=1;strokeColor=none;fillColor=none;align=center;verticalAlign=middle;whiteSpace=wrap;rounded=0;" vertex="1" parent="1">
          <mxGeometry x="238.5" y="775" width="60" height="30" as="geometry" />
        </mxCell>
        <mxCell id="dOXDGdKDW4Vw85Aybklp-78" value="1:1" style="text;html=1;strokeColor=none;fillColor=none;align=center;verticalAlign=middle;whiteSpace=wrap;rounded=0;" vertex="1" parent="1">
          <mxGeometry x="539.5" y="760" width="60" height="30" as="geometry" />
        </mxCell>
        <mxCell id="dOXDGdKDW4Vw85Aybklp-79" value="1:n" style="text;html=1;strokeColor=none;fillColor=none;align=center;verticalAlign=middle;whiteSpace=wrap;rounded=0;" vertex="1" parent="1">
          <mxGeometry x="578.5" y="805" width="60" height="30" as="geometry" />
        </mxCell>
        <mxCell id="dOXDGdKDW4Vw85Aybklp-80" value="1:1" style="text;html=1;strokeColor=none;fillColor=none;align=center;verticalAlign=middle;whiteSpace=wrap;rounded=0;" vertex="1" parent="1">
          <mxGeometry x="358.5" y="900" width="60" height="30" as="geometry" />
        </mxCell>
        <mxCell id="dOXDGdKDW4Vw85Aybklp-81" value="n:1" style="text;html=1;strokeColor=none;fillColor=none;align=center;verticalAlign=middle;whiteSpace=wrap;rounded=0;" vertex="1" parent="1">
          <mxGeometry x="208.5" y="885" width="60" height="30" as="geometry" />
        </mxCell>
        <mxCell id="dOXDGdKDW4Vw85Aybklp-82" value="1:n" style="text;html=1;strokeColor=none;fillColor=none;align=center;verticalAlign=middle;whiteSpace=wrap;rounded=0;" vertex="1" parent="1">
          <mxGeometry x="619.5" y="940" width="60" height="30" as="geometry" />
        </mxCell>
        <mxCell id="dOXDGdKDW4Vw85Aybklp-83" value="1:1" style="text;html=1;strokeColor=none;fillColor=none;align=center;verticalAlign=middle;whiteSpace=wrap;rounded=0;" vertex="1" parent="1">
          <mxGeometry x="629.5" y="1030" width="60" height="30" as="geometry" />
        </mxCell>
        <mxCell id="dOXDGdKDW4Vw85Aybklp-84" value="1:n" style="text;html=1;strokeColor=none;fillColor=none;align=center;verticalAlign=middle;whiteSpace=wrap;rounded=0;" vertex="1" parent="1">
          <mxGeometry x="659.5" y="985" width="60" height="30" as="geometry" />
        </mxCell>
        <mxCell id="dOXDGdKDW4Vw85Aybklp-85" value="1:1" style="text;html=1;strokeColor=none;fillColor=none;align=center;verticalAlign=middle;whiteSpace=wrap;rounded=0;" vertex="1" parent="1">
          <mxGeometry x="659.5" y="740" width="60" height="30" as="geometry" />
        </mxCell>
        <mxCell id="dOXDGdKDW4Vw85Aybklp-86" value="1:n" style="text;html=1;strokeColor=none;fillColor=none;align=center;verticalAlign=middle;whiteSpace=wrap;rounded=0;" vertex="1" parent="1">
          <mxGeometry x="659.5" y="830" width="60" height="30" as="geometry" />
        </mxCell>
        <mxCell id="dOXDGdKDW4Vw85Aybklp-87" value="1:n" style="text;html=1;strokeColor=none;fillColor=none;align=center;verticalAlign=middle;whiteSpace=wrap;rounded=0;" vertex="1" parent="1">
          <mxGeometry x="698.5" y="785" width="60" height="30" as="geometry" />
        </mxCell>
        <mxCell id="dOXDGdKDW4Vw85Aybklp-88" value="&lt;font style=&quot;font-size: 8px;&quot;&gt;Nombre&lt;/font&gt;" style="ellipse;whiteSpace=wrap;html=1;aspect=fixed;" vertex="1" parent="1">
          <mxGeometry x="318" y="421" width="39.5" height="39.5" as="geometry" />
        </mxCell>
        <mxCell id="dOXDGdKDW4Vw85Aybklp-89" value="&lt;font style=&quot;font-size: 8px;&quot;&gt;Nº Asignado&lt;br&gt;&lt;/font&gt;" style="ellipse;whiteSpace=wrap;html=1;aspect=fixed;" vertex="1" parent="1">
          <mxGeometry x="368" y="420" width="40.5" height="40.5" as="geometry" />
        </mxCell>
        <mxCell id="dOXDGdKDW4Vw85Aybklp-90" value="&lt;font style=&quot;font-size: 8px;&quot;&gt;Teléfono&lt;/font&gt;" style="ellipse;whiteSpace=wrap;html=1;aspect=fixed;" vertex="1" parent="1">
          <mxGeometry x="418" y="420" width="40.5" height="40.5" as="geometry" />
        </mxCell>
        <mxCell id="dOXDGdKDW4Vw85Aybklp-91" value="&lt;font style=&quot;font-size: 6px;&quot;&gt;Campeonatos&amp;nbsp; pasados&lt;/font&gt;" style="ellipse;whiteSpace=wrap;html=1;aspect=fixed;" vertex="1" parent="1">
          <mxGeometry x="468" y="420" width="40.5" height="40.5" as="geometry" />
        </mxCell>
        <mxCell id="dOXDGdKDW4Vw85Aybklp-93" value="" style="endArrow=none;html=1;rounded=0;" edge="1" parent="1" target="dOXDGdKDW4Vw85Aybklp-91">
          <mxGeometry width="50" height="50" relative="1" as="geometry">
            <mxPoint x="419.5" y="510" as="sourcePoint" />
            <mxPoint x="469.5" y="460" as="targetPoint" />
          </mxGeometry>
        </mxCell>
        <mxCell id="dOXDGdKDW4Vw85Aybklp-94" value="" style="endArrow=none;html=1;rounded=0;" edge="1" parent="1" target="dOXDGdKDW4Vw85Aybklp-88">
          <mxGeometry width="50" height="50" relative="1" as="geometry">
            <mxPoint x="419.5" y="510" as="sourcePoint" />
            <mxPoint x="469.5" y="460" as="targetPoint" />
          </mxGeometry>
        </mxCell>
        <mxCell id="dOXDGdKDW4Vw85Aybklp-95" value="" style="endArrow=none;html=1;rounded=0;" edge="1" parent="1" target="dOXDGdKDW4Vw85Aybklp-89">
          <mxGeometry width="50" height="50" relative="1" as="geometry">
            <mxPoint x="419.5" y="510" as="sourcePoint" />
            <mxPoint x="469.5" y="460" as="targetPoint" />
          </mxGeometry>
        </mxCell>
        <mxCell id="dOXDGdKDW4Vw85Aybklp-96" value="" style="endArrow=none;html=1;rounded=0;" edge="1" parent="1" target="dOXDGdKDW4Vw85Aybklp-90">
          <mxGeometry width="50" height="50" relative="1" as="geometry">
            <mxPoint x="419.5" y="510" as="sourcePoint" />
            <mxPoint x="469.5" y="460" as="targetPoint" />
          </mxGeometry>
        </mxCell>
        <mxCell id="dOXDGdKDW4Vw85Aybklp-97" value="&lt;font style=&quot;font-size: 6px;&quot;&gt;Nivel de juego &lt;br&gt;1/10&lt;/font&gt;" style="ellipse;whiteSpace=wrap;html=1;aspect=fixed;" vertex="1" parent="1">
          <mxGeometry x="408" y="780" width="40.5" height="40.5" as="geometry" />
        </mxCell>
        <mxCell id="dOXDGdKDW4Vw85Aybklp-98" value="" style="endArrow=none;html=1;rounded=0;" edge="1" parent="1" source="dOXDGdKDW4Vw85Aybklp-97">
          <mxGeometry width="50" height="50" relative="1" as="geometry">
            <mxPoint x="419.5" y="810" as="sourcePoint" />
            <mxPoint x="469.5" y="760" as="targetPoint" />
          </mxGeometry>
        </mxCell>
        <mxCell id="dOXDGdKDW4Vw85Aybklp-99" value="&lt;font style=&quot;font-size: 8px;&quot;&gt;Nombre&lt;/font&gt;" style="ellipse;whiteSpace=wrap;html=1;aspect=fixed;" vertex="1" parent="1">
          <mxGeometry x="68" y="591" width="39.5" height="39.5" as="geometry" />
        </mxCell>
        <mxCell id="dOXDGdKDW4Vw85Aybklp-100" value="&lt;font style=&quot;font-size: 8px;&quot;&gt;Número&lt;br&gt;&lt;/font&gt;" style="ellipse;whiteSpace=wrap;html=1;aspect=fixed;" vertex="1" parent="1">
          <mxGeometry x="118" y="590" width="40.5" height="40.5" as="geometry" />
        </mxCell>
        <mxCell id="dOXDGdKDW4Vw85Aybklp-101" value="&lt;font style=&quot;font-size: 6px;&quot;&gt;Nº de clubes de ajedrez&lt;/font&gt;" style="ellipse;whiteSpace=wrap;html=1;aspect=fixed;" vertex="1" parent="1">
          <mxGeometry x="168" y="590" width="40.5" height="40.5" as="geometry" />
        </mxCell>
        <mxCell id="dOXDGdKDW4Vw85Aybklp-102" value="" style="endArrow=none;html=1;rounded=0;entryX=0.505;entryY=1;entryDx=0;entryDy=0;entryPerimeter=0;" edge="1" parent="1" source="dOXDGdKDW4Vw85Aybklp-99" target="dOXDGdKDW4Vw85Aybklp-15">
          <mxGeometry width="50" height="50" relative="1" as="geometry">
            <mxPoint x="59.5" y="610" as="sourcePoint" />
            <mxPoint x="109.5" y="560" as="targetPoint" />
          </mxGeometry>
        </mxCell>
        <mxCell id="dOXDGdKDW4Vw85Aybklp-103" value="" style="endArrow=none;html=1;rounded=0;" edge="1" parent="1" source="dOXDGdKDW4Vw85Aybklp-101">
          <mxGeometry width="50" height="50" relative="1" as="geometry">
            <mxPoint x="129.5" y="610" as="sourcePoint" />
            <mxPoint x="139.5" y="560" as="targetPoint" />
          </mxGeometry>
        </mxCell>
        <mxCell id="dOXDGdKDW4Vw85Aybklp-104" value="" style="endArrow=none;html=1;rounded=0;entryX=0.507;entryY=0.996;entryDx=0;entryDy=0;entryPerimeter=0;" edge="1" parent="1" source="dOXDGdKDW4Vw85Aybklp-100" target="dOXDGdKDW4Vw85Aybklp-15">
          <mxGeometry width="50" height="50" relative="1" as="geometry">
            <mxPoint x="89.5" y="610" as="sourcePoint" />
            <mxPoint x="139.5" y="560" as="targetPoint" />
          </mxGeometry>
        </mxCell>
        <mxCell id="dOXDGdKDW4Vw85Aybklp-105" value="&lt;font style=&quot;font-size: 8px;&quot;&gt;Cod_P&lt;/font&gt;" style="ellipse;whiteSpace=wrap;html=1;aspect=fixed;" vertex="1" parent="1">
          <mxGeometry x="448.5" y="914.5" width="40.5" height="40.5" as="geometry" />
        </mxCell>
        <mxCell id="dOXDGdKDW4Vw85Aybklp-106" value="&lt;font style=&quot;font-size: 8px;&quot;&gt;Fichas jugadas&lt;/font&gt;" style="ellipse;whiteSpace=wrap;html=1;aspect=fixed;" vertex="1" parent="1">
          <mxGeometry x="489" y="955" width="40.5" height="40.5" as="geometry" />
        </mxCell>
        <mxCell id="dOXDGdKDW4Vw85Aybklp-107" value="&lt;font style=&quot;font-size: 8px;&quot;&gt;Partidas jugadas&lt;/font&gt;" style="ellipse;whiteSpace=wrap;html=1;aspect=fixed;" vertex="1" parent="1">
          <mxGeometry x="457.5" y="780" width="40.5" height="40.5" as="geometry" />
        </mxCell>
        <mxCell id="dOXDGdKDW4Vw85Aybklp-108" value="" style="endArrow=none;html=1;rounded=0;" edge="1" parent="1" source="dOXDGdKDW4Vw85Aybklp-107">
          <mxGeometry width="50" height="50" relative="1" as="geometry">
            <mxPoint x="469" y="810" as="sourcePoint" />
            <mxPoint x="469.5" y="760" as="targetPoint" />
          </mxGeometry>
        </mxCell>
        <mxCell id="dOXDGdKDW4Vw85Aybklp-109" value="" style="endArrow=none;html=1;rounded=0;entryX=0.024;entryY=0.968;entryDx=0;entryDy=0;entryPerimeter=0;" edge="1" parent="1" source="dOXDGdKDW4Vw85Aybklp-106" target="dOXDGdKDW4Vw85Aybklp-41">
          <mxGeometry width="50" height="50" relative="1" as="geometry">
            <mxPoint x="479.5" y="979.5" as="sourcePoint" />
            <mxPoint x="529.5" y="929.5" as="targetPoint" />
          </mxGeometry>
        </mxCell>
        <mxCell id="dOXDGdKDW4Vw85Aybklp-110" value="" style="endArrow=none;html=1;rounded=0;entryX=0.023;entryY=0.968;entryDx=0;entryDy=0;entryPerimeter=0;" edge="1" parent="1" source="dOXDGdKDW4Vw85Aybklp-105" target="dOXDGdKDW4Vw85Aybklp-41">
          <mxGeometry width="50" height="50" relative="1" as="geometry">
            <mxPoint x="479.5" y="979.5" as="sourcePoint" />
            <mxPoint x="529.5" y="929.5" as="targetPoint" />
          </mxGeometry>
        </mxCell>
        <mxCell id="dOXDGdKDW4Vw85Aybklp-111" value="&lt;font style=&quot;font-size: 8px;&quot;&gt;Nombre&lt;/font&gt;" style="ellipse;whiteSpace=wrap;html=1;aspect=fixed;" vertex="1" parent="1">
          <mxGeometry x="849.75" y="501" width="39.5" height="39.5" as="geometry" />
        </mxCell>
        <mxCell id="dOXDGdKDW4Vw85Aybklp-112" value="&lt;font style=&quot;font-size: 8px;&quot;&gt;Dirección&lt;br&gt;&lt;/font&gt;" style="ellipse;whiteSpace=wrap;html=1;aspect=fixed;" vertex="1" parent="1">
          <mxGeometry x="899.75" y="500" width="40.5" height="40.5" as="geometry" />
        </mxCell>
        <mxCell id="dOXDGdKDW4Vw85Aybklp-113" value="&lt;font style=&quot;font-size: 8px;&quot;&gt;Teléfono&lt;/font&gt;" style="ellipse;whiteSpace=wrap;html=1;aspect=fixed;" vertex="1" parent="1">
          <mxGeometry x="949.75" y="500" width="40.5" height="40.5" as="geometry" />
        </mxCell>
        <mxCell id="dOXDGdKDW4Vw85Aybklp-114" value="" style="endArrow=none;html=1;rounded=0;" edge="1" parent="1" target="dOXDGdKDW4Vw85Aybklp-113">
          <mxGeometry width="50" height="50" relative="1" as="geometry">
            <mxPoint x="919.75" y="589" as="sourcePoint" />
            <mxPoint x="969.75" y="539" as="targetPoint" />
          </mxGeometry>
        </mxCell>
        <mxCell id="dOXDGdKDW4Vw85Aybklp-115" value="" style="endArrow=none;html=1;rounded=0;" edge="1" parent="1" target="dOXDGdKDW4Vw85Aybklp-112">
          <mxGeometry width="50" height="50" relative="1" as="geometry">
            <mxPoint x="919.75" y="589" as="sourcePoint" />
            <mxPoint x="969.75" y="539" as="targetPoint" />
          </mxGeometry>
        </mxCell>
        <mxCell id="dOXDGdKDW4Vw85Aybklp-116" value="" style="endArrow=none;html=1;rounded=0;" edge="1" parent="1" target="dOXDGdKDW4Vw85Aybklp-111">
          <mxGeometry width="50" height="50" relative="1" as="geometry">
            <mxPoint x="919.75" y="589" as="sourcePoint" />
            <mxPoint x="969.75" y="539" as="targetPoint" />
          </mxGeometry>
        </mxCell>
        <mxCell id="dOXDGdKDW4Vw85Aybklp-117" value="" style="triangle;whiteSpace=wrap;html=1;direction=east;fillColor=#FFFF88;" vertex="1" parent="1">
          <mxGeometry x="770" y="633.5" width="50" height="80" as="geometry" />
        </mxCell>
        <mxCell id="dOXDGdKDW4Vw85Aybklp-125" value="" style="endArrow=none;html=1;rounded=0;" edge="1" parent="1" target="dOXDGdKDW4Vw85Aybklp-48">
          <mxGeometry width="50" height="50" relative="1" as="geometry">
            <mxPoint x="770" y="670" as="sourcePoint" />
            <mxPoint x="769.9999999999918" y="670" as="targetPoint" />
          </mxGeometry>
        </mxCell>
        <mxCell id="dOXDGdKDW4Vw85Aybklp-126" value="" style="endArrow=none;html=1;rounded=0;exitX=1;exitY=0.5;exitDx=0;exitDy=0;" edge="1" parent="1" source="dOXDGdKDW4Vw85Aybklp-117" target="dOXDGdKDW4Vw85Aybklp-127">
          <mxGeometry width="50" height="50" relative="1" as="geometry">
            <mxPoint x="830" y="668.5" as="sourcePoint" />
            <mxPoint x="880" y="618.5" as="targetPoint" />
          </mxGeometry>
        </mxCell>
        <mxCell id="dOXDGdKDW4Vw85Aybklp-127" value="Alojamiento" style="rounded=1;whiteSpace=wrap;html=1;fillColor=#fad9d5;strokeColor=#ae4132;" vertex="1" parent="1">
          <mxGeometry x="860" y="589.5" width="120" height="60" as="geometry" />
        </mxCell>
        <mxCell id="dOXDGdKDW4Vw85Aybklp-128" value="Sala de juego" style="rounded=1;whiteSpace=wrap;html=1;fillColor=#b0e3e6;strokeColor=#0e8088;" vertex="1" parent="1">
          <mxGeometry x="860" y="688.5" width="120" height="60" as="geometry" />
        </mxCell>
        <mxCell id="dOXDGdKDW4Vw85Aybklp-129" value="" style="endArrow=none;html=1;rounded=0;exitX=1;exitY=0.5;exitDx=0;exitDy=0;" edge="1" parent="1" source="dOXDGdKDW4Vw85Aybklp-117" target="dOXDGdKDW4Vw85Aybklp-128">
          <mxGeometry width="50" height="50" relative="1" as="geometry">
            <mxPoint x="830" y="748.5" as="sourcePoint" />
            <mxPoint x="880" y="698.5" as="targetPoint" />
          </mxGeometry>
        </mxCell>
        <mxCell id="dOXDGdKDW4Vw85Aybklp-130" value="Alojamiento" style="rounded=1;whiteSpace=wrap;html=1;fillColor=#fad9d5;strokeColor=#ae4132;" vertex="1" parent="1">
          <mxGeometry x="79" y="81" width="120" height="60" as="geometry" />
        </mxCell>
        <mxCell id="dOXDGdKDW4Vw85Aybklp-131" value="Sala de juego" style="rounded=1;whiteSpace=wrap;html=1;fillColor=#b0e3e6;strokeColor=#0e8088;" vertex="1" parent="1">
          <mxGeometry x="79" y="161" width="120" height="60" as="geometry" />
        </mxCell>
        <mxCell id="dOXDGdKDW4Vw85Aybklp-132" value="&lt;font style=&quot;font-size: 8px;&quot;&gt;Capacidad&lt;/font&gt;" style="ellipse;whiteSpace=wrap;html=1;aspect=fixed;" vertex="1" parent="1">
          <mxGeometry x="870" y="800" width="39.5" height="39.5" as="geometry" />
        </mxCell>
        <mxCell id="dOXDGdKDW4Vw85Aybklp-134" value="&lt;font style=&quot;font-size: 8px;&quot;&gt;Medios&lt;/font&gt;" style="ellipse;whiteSpace=wrap;html=1;aspect=fixed;" vertex="1" parent="1">
          <mxGeometry x="930" y="800" width="40.5" height="40.5" as="geometry" />
        </mxCell>
        <mxCell id="dOXDGdKDW4Vw85Aybklp-135" value="" style="endArrow=none;html=1;rounded=0;exitX=0.5;exitY=1;exitDx=0;exitDy=0;" edge="1" parent="1" target="dOXDGdKDW4Vw85Aybklp-134" source="dOXDGdKDW4Vw85Aybklp-128">
          <mxGeometry width="50" height="50" relative="1" as="geometry">
            <mxPoint x="919.75" y="888.5" as="sourcePoint" />
            <mxPoint x="969.75" y="838.5" as="targetPoint" />
          </mxGeometry>
        </mxCell>
        <mxCell id="dOXDGdKDW4Vw85Aybklp-137" value="" style="endArrow=none;html=1;rounded=0;exitX=0.5;exitY=1;exitDx=0;exitDy=0;" edge="1" parent="1" target="dOXDGdKDW4Vw85Aybklp-132" source="dOXDGdKDW4Vw85Aybklp-128">
          <mxGeometry width="50" height="50" relative="1" as="geometry">
            <mxPoint x="919.75" y="888.5" as="sourcePoint" />
            <mxPoint x="969.75" y="838.5" as="targetPoint" />
          </mxGeometry>
        </mxCell>
        <mxCell id="dOXDGdKDW4Vw85Aybklp-138" value="" style="shape=requiredInterface;html=1;verticalLabelPosition=bottom;sketch=0;direction=east;" vertex="1" parent="1">
          <mxGeometry x="810" y="608.5" width="27" height="120" as="geometry" />
        </mxCell>
        <mxCell id="dOXDGdKDW4Vw85Aybklp-139" value="" style="endArrow=none;html=1;rounded=0;" edge="1" parent="1">
          <mxGeometry width="50" height="50" relative="1" as="geometry">
            <mxPoint x="660" y="640" as="sourcePoint" />
            <mxPoint x="660" y="540" as="targetPoint" />
          </mxGeometry>
        </mxCell>
        <mxCell id="dOXDGdKDW4Vw85Aybklp-140" value="" style="endArrow=none;html=1;rounded=0;entryX=1;entryY=0.5;entryDx=0;entryDy=0;" edge="1" parent="1" target="dOXDGdKDW4Vw85Aybklp-49">
          <mxGeometry width="50" height="50" relative="1" as="geometry">
            <mxPoint x="660" y="540" as="sourcePoint" />
            <mxPoint x="570" y="540" as="targetPoint" />
          </mxGeometry>
        </mxCell>
        <mxCell id="dOXDGdKDW4Vw85Aybklp-141" value="" style="endArrow=none;html=1;rounded=0;exitX=0.148;exitY=1.003;exitDx=0;exitDy=0;exitPerimeter=0;entryX=0.5;entryY=1;entryDx=0;entryDy=0;" edge="1" parent="1" source="dOXDGdKDW4Vw85Aybklp-85" target="dOXDGdKDW4Vw85Aybklp-48">
          <mxGeometry width="50" height="50" relative="1" as="geometry">
            <mxPoint x="650" y="760" as="sourcePoint" />
            <mxPoint x="660" y="700" as="targetPoint" />
          </mxGeometry>
        </mxCell>
      </root>
    </mxGraphModel>
  </diagram>
</mxfile>
